<svg width="48" height="48" viewBox="0 0 48 48" fill="none" xmlns="http://www.w3.org/2000/svg">
<path d="M25.275 13.5712C25.275 13.5712 25.695 15.1912 23.895 15.6112C22.32 15.9825 21.99 14.3925 21.99 14.3925C21.99 14.3925 21.6413 12.7875 20.9213 12.63C20.6475 12.57 20.5875 12.6375 19.8038 12.5212C18.465 12.3187 18.1125 11.67 18 11.0812C17.9625 10.9012 17.9475 10.725 17.9363 10.5712C17.9175 10.3575 17.8988 10.185 17.8238 10.0875C17.7638 10.0087 16.9313 9.69 17.0438 9.28875C17.1938 8.75625 18.1763 8.3325 18.135 7.8375C18.1388 7.71 18.0563 7.29375 18.045 7.2375C17.9663 6.765 17.9925 6.105 18.1425 5.4525C18.555 3.6525 19.7288 2.29125 21.7425 2.1C23.5463 1.935 25.6088 3.2775 26.4525 4.87875C26.9925 5.90625 26.2088 8.5575 25.2863 9.96C24.0863 11.79 25.275 13.5712 25.275 13.5712Z" fill="#FFD3B6"/>
<path d="M18.93 10.8825C18.645 11.0662 18.3225 11.1187 18 11.0812C17.9625 10.9012 17.9475 10.725 17.9362 10.5712C18.1912 10.6237 18.5137 10.6087 18.705 10.545C19.0575 10.425 19.245 10.6875 18.93 10.8825Z" fill="#795548"/>
<path d="M19.9909 8.22891C20.0049 7.86468 19.825 7.56205 19.5891 7.55298C19.3532 7.54392 19.1506 7.83184 19.1366 8.19608C19.1226 8.56032 19.3025 8.86294 19.5384 8.87201C19.7743 8.88108 19.9769 8.59315 19.9909 8.22891Z" fill="#404040"/>
<path d="M19.3275 7.29372C18.915 7.42872 18.8062 7.15872 18.9412 6.92997C19.0387 6.76497 19.2862 6.61872 19.7775 6.69747C20.2387 6.77247 20.4375 7.03122 20.565 7.18872C20.6925 7.34622 20.685 7.50747 20.58 7.52247C20.4337 7.55247 19.8375 7.12872 19.3275 7.29372Z" fill="#6D4C41"/>
<path d="M37.0725 30.99L30.1087 32.3812L28.17 25.68L23.5087 28.8037L26.9062 35.6287L26.9212 35.6175C27.2061 36.1229 27.6748 36.499 28.23 36.6675C28.3987 36.72 28.5675 36.75 28.74 36.7612V36.7687L28.7962 36.765C29.0062 36.7762 29.2125 36.7612 29.4112 36.72L38.0062 33.4537L37.0725 30.99Z" fill="#C29B00"/>
<path d="M38.565 29.5612C38.445 29.3587 38.1862 29.295 37.9837 29.415L37.095 29.9475C36.4912 30.3075 36.165 31.3312 36.165 31.3312L37.485 33.5475L39.3337 35.1525C39.81 35.5237 40.4662 35.565 40.9875 35.2612L41.3887 35.025C41.565 34.92 41.625 34.6912 41.52 34.515L38.565 29.5612Z" fill="#5AED4F"/>
<path d="M16.8225 42.675L21.1013 34.5C21.1013 34.5 26.43 30.09 26.895 29.7787C28.6313 28.6162 28.9763 27 28.8038 25.8262C28.6688 24.915 28.065 23.7037 28.065 23.7037L21.0713 25.7887L21.4013 27.0712C21.4013 27.0712 19.26 29.8387 18.7613 30.4162C18.2625 30.9937 17.4075 31.8 16.7438 34.0762C16.0425 36.4762 14.2838 42.2625 14.2838 42.2625L16.8225 42.675Z" fill="#FFCC00"/>
<path d="M16.8187 45.2213C17.0512 45.2588 17.2687 45.1013 17.3062 44.8725L17.4712 43.8488C17.5875 43.155 17.0137 42.2475 17.0137 42.2475L14.4675 41.8275L12.0487 42.2063C11.4562 42.3338 11.0025 42.8063 10.9012 43.4025L10.8225 43.8638C10.7887 44.0663 10.9237 44.2575 11.1262 44.2913L16.8187 45.2213Z" fill="#5AED4F"/>
<path d="M18.7725 18.3825L15.4125 15.825L13.7775 17.5725L17.1675 20.8575L17.1713 20.8537C17.835 21.5475 19.3913 22.02 20.685 20.8425C21.915 19.7212 23.4338 17.3325 23.4338 17.3325L20.805 15.225L18.7725 18.3825Z" fill="#FFD3B6"/>
<path d="M18.8513 16.8525C19.815 19.5488 22.1775 19.6313 22.1775 19.6313L24.06 16.4063C24.303 15.9894 24.3708 15.4932 24.2485 15.0264C24.1262 14.5596 23.8237 14.1604 23.4075 13.9163L23.0963 13.7325C22.23 13.2263 21.495 13.4738 20.3288 15.1763C19.2825 16.71 18.8513 16.8525 18.8513 16.8525Z" fill="#915959"/>
<path d="M21.0713 25.785C20.1413 22.095 19.9688 19.5038 20.1788 17.4263C20.4488 14.8088 21.6975 13.245 23.1 12.75C24.8325 12.1388 26.0325 13.02 26.5163 14.5875C26.8463 15.6563 26.7825 16.4775 26.7563 16.9875C26.7563 16.9875 26.5163 19.7888 28.7438 23.295C28.7438 23.295 28.53 24.8175 24.975 25.6538C23.3925 26.025 21.0713 25.785 21.0713 25.785Z" fill="#915959"/>
<path d="M26.7975 22.3538C26.7975 22.3538 25.17 21.5438 25.1512 21.5363C25.1025 21.51 25.0491 21.4937 24.994 21.4881C24.939 21.4826 24.8833 21.488 24.8304 21.504C24.7774 21.5201 24.7281 21.5464 24.6854 21.5815C24.6426 21.6167 24.6072 21.6599 24.5812 21.7088L24.2325 22.3613C24.1762 22.47 24.1725 22.59 24.21 22.6988C24.0225 22.8075 23.5612 23.0925 23.4637 23.2838C23.3512 23.5013 23.4787 23.73 23.5987 23.7825C23.7375 23.8425 23.8012 24.0375 23.76 24.1838C23.715 24.3338 23.7187 24.4875 23.79 24.6113C23.8612 24.735 23.9512 24.7838 24.1237 24.8175C24.2062 24.8325 24.2925 24.9375 24.2925 25.02C24.2887 25.1475 24.2887 25.3688 24.3525 25.4513C24.48 25.62 24.69 25.5675 24.7987 25.6913C24.84 25.74 24.8437 25.9538 24.93 26.0325C25.185 26.2725 26.0137 25.83 26.0137 25.83L27.5962 24.3638L26.7975 22.3538Z" fill="#FFD3B6"/>
<path d="M26.2725 22.0988L27.2737 22.38L27.96 24.2738C27.96 24.2738 25.8187 26.3813 25.455 25.7925C25.3387 25.6088 25.5525 25.41 25.2412 25.2938C25.02 25.2113 24.855 25.1063 24.9187 24.765C24.945 24.6375 24.8437 24.48 24.7537 24.4688C24.3487 24.42 24.2437 24.195 24.3637 23.91C24.4312 23.7525 24.4162 23.4863 24.1875 23.3663C24.105 23.3213 23.9887 23.1375 24.0412 22.875C24.1275 22.4663 26.2725 22.0988 26.2725 22.0988Z" fill="#FFD3B6"/>
<path d="M27.6487 24.51L31.3575 22.0088V22.005C31.8037 21.5625 31.9612 21.255 32.0512 20.8838C32.3362 19.7213 31.5787 18.9113 31.5787 18.9113L28.1475 15.075L26.0325 17.2613L29.0475 20.2763L26.7937 22.3575L27.6487 24.51Z" fill="#FFD3B6"/>
<path d="M27.7237 19.5037C27.7237 19.5037 29.9962 17.2575 29.9362 15.5287C29.9362 15.5287 28.8525 15.525 27.24 14.3062C26.2237 13.5412 24.8737 13.4775 24.33 14.37C23.8462 15.1575 23.925 16.1287 24.855 17.2425C25.5525 18.0712 27.7237 19.5037 27.7237 19.5037Z" fill="#915959"/>
<path d="M13.6088 16.2712L13.5975 16.2787C13.4363 16.4812 13.1588 16.5375 12.9788 16.3987L12.2475 15.8475C12.0675 15.7125 12.0525 15.435 12.2138 15.2325C12.375 15.03 12.6525 14.9737 12.8325 15.1125L13.5638 15.6637C13.7475 15.8025 13.7738 16.0687 13.6088 16.2712Z" fill="#FFD3B6"/>
<path d="M14.2238 13.965C14.235 13.9725 14.2388 13.98 14.2388 13.98C14.5725 14.3362 14.8688 14.6325 14.9963 14.7112C15.3338 14.925 15.6488 15.195 15.8438 15.5737C16.2075 16.2825 15.7425 16.98 15.1988 17.4937C14.6588 18.0112 14.3175 18.1237 13.7288 18.0262C13.2488 17.9475 12.2325 16.8712 12.2325 16.8712C12.1275 16.7475 12.0075 16.62 11.8875 16.5C11.8425 16.455 11.7938 16.41 11.7488 16.3612L11.745 16.3575C11.6063 16.2225 11.5875 16.0425 11.7413 15.855C11.9438 15.6075 12.1425 15.735 12.165 15.7537L12.1688 15.7575C12.2625 15.8437 12.3638 15.96 12.4388 16.0162C12.6563 16.1775 12.7763 16.2075 12.7763 16.2075L13.8038 14.9025L13.455 14.4375C13.455 14.4375 13.4513 14.43 13.44 14.4187C13.4025 14.3587 13.2563 14.145 13.5338 13.8937C13.8413 13.6312 14.16 13.905 14.2238 13.965Z" fill="#FFD3B6"/>
<path d="M14.19 15.735C14.01 15.9262 13.7288 15.9562 13.56 15.8062L12.7838 15.1125C12.615 14.9625 12.6225 14.685 12.8025 14.4937C12.9825 14.3025 13.2638 14.2725 13.4325 14.4225L14.2088 15.1162C14.3738 15.27 14.3663 15.5437 14.19 15.735Z" fill="#FFD3B6"/>
<path d="M13.1813 15.8475C13.35 15.6037 13.5563 15.3037 13.785 15.045C13.8188 15.0075 13.8488 14.9737 13.8825 14.94C14.1975 14.6137 14.61 14.5575 15.1275 14.8387C15.1463 14.85 15.1613 14.8575 15.18 14.8687C15.21 14.8875 15.24 14.9062 15.2738 14.925L15.2775 14.9287C15.3225 14.9587 15.3675 14.9887 15.4125 15.0225C15.5663 15.135 15.6825 15.2737 15.7538 15.4087C16.0388 15.8625 15.9563 16.2937 15.9563 16.2937C15.9563 16.2937 15.6263 17.2987 15.1388 17.1225C14.6513 16.9462 14.4 16.2525 14.4 16.2525L14.5275 15.75C14.3813 15.735 14.2538 15.7987 14.0813 15.9937C14.025 16.0575 13.9613 16.1362 13.8863 16.23C13.8788 16.2412 13.785 16.3575 13.7775 16.365C13.665 16.4887 13.5375 16.5487 13.3838 16.5375C13.185 16.5262 13.0163 16.335 12.9225 16.26C12.9938 16.17 13.0875 15.9787 13.1813 15.8475Z" fill="#FFD3B6"/>
<path d="M12.96 17.0062L13.5675 16.5075L13.89 16.14L14.31 15.7725L14.4563 15.8362L14.3663 16.3162L14.6813 16.7887L14.88 16.9575L13.8488 17.6887L12.96 17.0062Z" fill="#FFD3B6"/>
<path d="M13.0013 16.7325C12.99 16.965 12.765 17.0925 12.78 17.0962C12.8438 17.1225 13.1588 17.0437 13.5075 16.6537C13.7775 16.35 14.0363 15.9562 14.3513 15.8625C14.2425 16.395 14.4788 16.8037 14.9138 16.965C14.58 16.6537 14.31 16.1287 14.6138 15.7087C14.3663 15.5587 14.0775 15.8062 13.9313 15.9862C13.7625 16.1887 13.6125 16.5037 13.3013 16.4625C13.0875 16.4362 13.0088 16.3012 13.0838 16.0987C13.2713 15.6037 13.71 15.0975 14.16 14.8162C14.325 14.715 14.6625 14.6887 15.0975 14.775C14.7788 14.5275 14.235 14.6062 14.0288 14.7037C13.8525 14.7862 13.8975 14.7525 13.74 14.6512C13.6613 14.5987 13.5825 14.5462 13.5075 14.4975C13.5713 14.6025 13.6838 14.73 13.7025 14.8537C13.725 15.0075 13.5788 15.1387 13.4888 15.2475C13.2563 15.525 13.0538 15.285 12.8138 15.135C12.975 15.3262 13.0125 15.3862 13.095 15.5212C13.2038 15.705 13.0388 15.855 12.9188 15.9975C12.675 16.29 12.1725 15.6937 12.1388 15.7312C12.1013 15.7762 13.0125 16.4775 13.0013 16.7325Z" fill="#FFD3B6"/>
<path d="M27.5963 4.80753C27.1238 3.55503 26.1225 3.16128 25.7963 3.06378C25.65 2.61003 24.9038 0.888779 22.0725 1.30128C21.3825 1.40253 20.8763 1.72128 20.4263 2.00253C20.235 2.12253 20.0513 2.23878 19.8825 2.31378C19.7438 2.37753 19.5 2.43378 19.3013 2.36253C18.8475 2.20503 19.0088 1.51878 19.0088 1.51878C19.0088 1.51878 17.3363 1.81878 18.0263 3.44253C17.4638 3.67878 17.1938 4.26753 17.085 4.82253C16.935 5.58003 17.295 6.31503 18.0188 6.65253C18.0188 6.65253 17.895 5.42628 19.6613 5.53128C20.2088 5.56503 20.7788 5.65878 21.2925 5.46378C21.4875 5.38878 21.6713 5.26878 21.8625 5.17878H21.93C22.5938 5.55003 21.6825 7.11003 22.41 8.04753C22.5525 8.23128 22.68 8.16753 22.68 8.16753L22.9875 7.73628C23.22 7.44003 23.43 7.18128 23.7113 7.24878C24.54 7.44753 24.3638 8.92878 23.37 9.24003C23.2725 9.27003 23.4713 10.9313 25.5188 10.9688C26.5763 10.9875 26.9663 10.1175 26.9663 10.1175C26.9663 10.1175 26.5125 10.2225 26.4225 9.83628C26.3738 9.63753 26.5613 9.37128 26.8988 9.08253C27.8663 8.25003 27.54 7.27128 27.405 6.96378C27.5475 6.68628 27.9638 5.78628 27.5963 4.80753Z" fill="#001022"/>
<path d="M27.3975 6.96756C27.4162 6.93381 27.09 7.71381 25.74 7.56006C25.185 7.54881 24.3862 8.87631 25.1812 9.77631C25.8862 10.5713 26.9587 10.1213 26.9587 10.1213C26.9587 10.1213 26.8125 10.1626 26.5987 10.0838C26.46 10.0313 26.415 9.85131 26.415 9.84381C26.3662 9.64506 26.5537 9.37881 26.8912 9.09006C27.8587 8.25006 27.5325 7.27131 27.3975 6.96756Z" fill="#001022"/>
<path d="M27.5963 4.80751C27.3488 4.14751 26.88 3.58875 26.2575 3.25875C26.1675 3.21 25.9463 3.0975 25.7925 3.0675C25.86 3.36 25.8488 3.67125 25.7175 3.98626C25.7138 3.99751 25.5638 4.47001 25.1475 4.84501C25.4363 5.26126 25.5788 5.76376 25.71 6.25876C25.8263 6.69001 25.935 7.16251 25.74 7.56376C25.9988 7.55251 26.4113 7.63126 26.8688 7.43626C27.3075 7.24876 27.5438 6.75001 27.66 6.30376C27.7838 5.80876 27.7763 5.28751 27.5963 4.80751Z" fill="#001022"/>
<path d="M25.7138 3.98666C26.055 3.15416 25.6088 2.37416 24.9225 1.84541C24.1163 1.22666 23.0438 1.15916 22.0725 1.30166C21.3825 1.40291 20.8763 1.72166 20.4263 2.00291C20.235 2.12291 20.0513 2.23916 19.8825 2.31416C19.7438 2.37791 19.5 2.43416 19.3013 2.36291C18.8475 2.20541 19.0088 1.51916 19.0088 1.51916C19.0088 1.51916 17.3363 1.81916 18.0263 3.44291C17.4638 3.67916 17.1938 4.26791 17.085 4.82291C16.935 5.58041 17.295 6.31541 18.0188 6.65291C18.0188 6.65291 17.895 5.42666 19.6613 5.53166C20.2088 5.56541 20.7788 5.65916 21.2925 5.46416C21.7463 5.29166 21.9038 5.05166 22.4063 5.08916C22.95 5.13041 23.67 5.34791 24.2288 5.27291C25.3613 5.11916 25.71 4.00166 25.7138 3.98666Z" fill="#001022"/>
<path d="M25.1813 9.77627C24.825 9.38252 24.7388 8.74502 24.1763 8.39252C24.0638 8.76002 23.79 9.10877 23.3663 9.24002C23.2688 9.27002 23.4675 10.9313 25.515 10.9688C26.5725 10.9875 26.9625 10.1175 26.9625 10.1175C26.9625 10.1175 25.9013 10.5675 25.1813 9.77627Z" fill="#001022"/>
</svg>
