<svg width="38" height="22" viewBox="0 0 38 22" fill="none" xmlns="http://www.w3.org/2000/svg">
<rect x="0.5" y="0.5" width="37" height="21" rx="10.5" fill="#212720" stroke="#313A33"/>
<g filter="url(#filter0_d_20_1478)">
<circle cx="11" cy="11" r="9" fill="#FDFDFD"/>
</g>
<g clip-path="url(#clip0_20_1478)">
<path d="M13.8333 10.9998C13.8333 10.7237 13.6095 10.4998 13.3333 10.4998C13.0572 10.4998 12.8333 10.7237 12.8333 10.9998H13.8333ZM9.60738 14.8301C9.37641 14.6788 9.06648 14.7433 8.91513 14.9743C8.76377 15.2052 8.82831 15.5152 9.05929 15.6665L9.60738 14.8301ZM9.00811 7.56409L9.15407 7.46785L8.60361 6.63299L8.45765 6.72923L9.00811 7.56409ZM4.52227 11.655C4.50817 11.4237 4.5 11.202 4.5 10.9998H3.5C3.5 11.2276 3.50916 11.4704 3.52412 11.7158L4.52227 11.655ZM4.5 10.9998C4.5 10.7977 4.50817 10.576 4.52227 10.3446L3.52412 10.2838C3.50916 10.5293 3.5 10.7721 3.5 10.9998H4.5ZM12.8333 10.9998C12.8333 11.341 12.8104 11.9672 12.7757 12.7136L13.7746 12.76C13.8091 12.0166 13.8333 11.3678 13.8333 10.9998H12.8333ZM7.00005 8.16651C7.32514 8.16651 7.54455 8.16811 7.76072 8.13161L7.59421 7.14557C7.47971 7.1649 7.35773 7.16651 7.00005 7.16651V8.16651ZM8.45765 6.72923C8.15904 6.92611 8.05632 6.99192 7.95009 7.0388L8.35385 7.95367C8.55442 7.86515 8.73671 7.74303 9.00811 7.56409L8.45765 6.72923ZM7.76072 8.13161C7.96504 8.0971 8.16427 8.03733 8.35385 7.95367L7.95009 7.0388C7.83635 7.089 7.7168 7.12486 7.59421 7.14557L7.76072 8.13161ZM7.00005 14.8332C7.35773 14.8332 7.47971 14.8348 7.59421 14.8541L7.76072 13.868C7.54455 13.8316 7.32514 13.8332 7.00005 13.8332V14.8332ZM7.00005 13.8332C6.03761 13.8332 5.71274 13.8223 5.43653 13.6945L5.01664 14.6021C5.53954 14.844 6.13062 14.8332 7.00005 14.8332V13.8332ZM3.52412 11.7158C3.57099 12.4848 3.59339 13.014 3.86552 13.519L4.74587 13.0446C4.60035 12.7746 4.57363 12.4978 4.52227 11.655L3.52412 11.7158ZM5.43653 13.6945C5.16963 13.571 4.88536 13.3036 4.74587 13.0446L3.86552 13.519C4.10761 13.9683 4.55344 14.3878 5.01664 14.6021L5.43653 13.6945ZM12.7757 12.7136C12.7283 13.734 12.694 14.4487 12.601 14.9652C12.5084 15.4795 12.3767 15.6759 12.2323 15.7774L12.8073 16.5956C13.278 16.2648 13.4773 15.742 13.5852 15.1424C13.6927 14.5452 13.7285 13.751 13.7746 12.76L12.7757 12.7136ZM12.2949 16.8563C12.4761 16.7944 12.6506 16.7056 12.8073 16.5956L12.2323 15.7774C12.1531 15.833 12.0635 15.8786 11.9719 15.9099L12.2949 16.8563ZM9.15407 7.46785C10.0139 6.90091 10.6173 6.50431 11.0935 6.27301C11.5683 6.04233 11.8058 6.03308 11.9719 6.08977L12.2949 5.14335C11.7494 4.95722 11.2072 5.10601 10.6565 5.37352C10.1071 5.6404 9.43905 6.08215 8.60361 6.63299L9.15407 7.46785ZM11.9719 6.08977C12.0635 6.12103 12.1531 6.16663 12.2323 6.22229L12.8073 5.40412C12.6506 5.294 12.4761 5.20521 12.2949 5.14335L11.9719 6.08977ZM7.00005 7.16651C6.13062 7.16651 5.53954 7.15565 5.01664 7.39758L5.43653 8.30515C5.71274 8.17736 6.03761 8.16651 7.00005 8.16651V7.16651ZM4.52227 10.3446C4.57363 9.50188 4.60035 9.22508 4.74587 8.95501L3.86552 8.48067C3.59339 8.98572 3.57099 9.51482 3.52412 10.2838L4.52227 10.3446ZM5.01664 7.39758C4.55344 7.61188 4.10761 8.03137 3.86552 8.48067L4.74587 8.95501C4.88536 8.69611 5.16963 8.42863 5.43653 8.30515L5.01664 7.39758ZM9.05929 15.6665C9.7518 16.1204 10.325 16.483 10.8136 16.6992C11.3085 16.918 11.8002 17.0251 12.2949 16.8563L11.9719 15.9099C11.8216 15.9612 11.6125 15.959 11.2181 15.7846C10.8176 15.6074 10.3132 15.2926 9.60738 14.8301L9.05929 15.6665ZM13.7487 8.69316C13.7083 7.87507 13.6642 7.20455 13.5513 6.68633C13.4368 6.16071 13.2335 5.70369 12.8073 5.40412L12.2323 6.22229C12.3629 6.31405 12.4836 6.48336 12.5743 6.89923C12.6665 7.32251 12.7087 7.90862 12.7499 8.7425L13.7487 8.69316Z" fill="#191A1C"/>
<path d="M16.3334 15C16.3334 15 17.3334 13.8 17.3334 11C17.3334 9.37774 16.9977 8.29257 16.7153 7.66669" stroke="#191A1C" stroke-linecap="round"/>
<path d="M15 13C15 13 15.3333 12.4 15.3333 11C15.3333 10.4254 15.2772 9.98562 15.211 9.66669" stroke="#191A1C" stroke-linecap="round"/>
<path d="M17.6667 4.33331L4.33337 17.6666" stroke="#191A1C" stroke-linecap="round"/>
</g>
<defs>
<filter id="filter0_d_20_1478" x="1" y="1" width="20" height="20" filterUnits="userSpaceOnUse" color-interpolation-filters="sRGB">
<feFlood flood-opacity="0" result="BackgroundImageFix"/>
<feColorMatrix in="SourceAlpha" type="matrix" values="0 0 0 0 0 0 0 0 0 0 0 0 0 0 0 0 0 0 127 0" result="hardAlpha"/>
<feOffset/>
<feGaussianBlur stdDeviation="0.5"/>
<feComposite in2="hardAlpha" operator="out"/>
<feColorMatrix type="matrix" values="0 0 0 0 0.235294 0 0 0 0 0.509804 0 0 0 0 0.760784 0 0 0 0.25 0"/>
<feBlend mode="normal" in2="BackgroundImageFix" result="effect1_dropShadow_20_1478"/>
<feBlend mode="normal" in="SourceGraphic" in2="effect1_dropShadow_20_1478" result="shape"/>
</filter>
<clipPath id="clip0_20_1478">
<rect width="16" height="16" fill="white" transform="translate(3 3)"/>
</clipPath>
</defs>
</svg>
