<svg width="38" height="22" viewBox="0 0 38 22" fill="none" xmlns="http://www.w3.org/2000/svg">
<rect x="0.5" y="0.5" width="37" height="21" rx="10.5" fill="url(#paint0_linear_20_1311)" stroke="#75FA4C"/>
<g filter="url(#filter0_d_20_1311)">
<circle cx="27" cy="11" r="9" fill="#FDFDFD"/>
</g>
<path d="M20.0232 10.3143C20.0723 9.50837 20.0969 9.10543 20.3057 8.71786C20.4965 8.36375 20.8615 8.02028 21.2266 7.85138C21.6261 7.66653 22.0841 7.66653 23.0001 7.66653C23.3414 7.66653 23.5121 7.66653 23.6775 7.63861C23.8409 7.611 24.0003 7.56319 24.152 7.49625C24.3054 7.42855 24.4479 7.33459 24.7329 7.14668L24.8788 7.05044C26.5741 5.93265 27.4218 5.37375 28.1334 5.61658C28.2698 5.66313 28.4019 5.73034 28.5198 5.81323C29.1349 6.24553 29.1817 7.25133 29.2751 9.26293C29.3097 10.0078 29.3333 10.6453 29.3333 10.9999C29.3333 11.3545 29.3097 11.9919 29.2751 12.7368C29.1817 14.7484 29.1349 15.7542 28.5198 16.1865C28.4019 16.2694 28.2698 16.3366 28.1334 16.3831C27.4218 16.6259 26.5741 16.0671 24.8788 14.9493L24.7329 14.8531C24.4479 14.6651 24.3054 14.5711 24.152 14.5035C24.0003 14.4365 23.8409 14.3887 23.6775 14.3611C23.5121 14.3332 23.3414 14.3332 23.0001 14.3332C22.0841 14.3332 21.6261 14.3332 21.2266 14.1483C20.8615 13.9795 20.4965 13.6359 20.3057 13.2819C20.0969 12.8943 20.0723 12.4913 20.0232 11.6855C20.0087 11.4471 20 11.2148 20 10.9999C20 10.7849 20.0087 10.5527 20.0232 10.3143Z" stroke="#191A1C"/>
<path d="M32.3334 7C32.3334 7 33.3334 8.2 33.3334 11C33.3334 13.8 32.3334 15 32.3334 15" stroke="#191A1C" stroke-linecap="round"/>
<path d="M31 9C31 9 31.3333 9.6 31.3333 11C31.3333 12.4 31 13 31 13" stroke="#191A1C" stroke-linecap="round"/>
<defs>
<filter id="filter0_d_20_1311" x="17" y="1" width="20" height="20" filterUnits="userSpaceOnUse" color-interpolation-filters="sRGB">
<feFlood flood-opacity="0" result="BackgroundImageFix"/>
<feColorMatrix in="SourceAlpha" type="matrix" values="0 0 0 0 0 0 0 0 0 0 0 0 0 0 0 0 0 0 127 0" result="hardAlpha"/>
<feOffset/>
<feGaussianBlur stdDeviation="0.5"/>
<feComposite in2="hardAlpha" operator="out"/>
<feColorMatrix type="matrix" values="0 0 0 0 0.235294 0 0 0 0 0.509804 0 0 0 0 0.760784 0 0 0 0.25 0"/>
<feBlend mode="normal" in2="BackgroundImageFix" result="effect1_dropShadow_20_1311"/>
<feBlend mode="normal" in="SourceGraphic" in2="effect1_dropShadow_20_1311" result="shape"/>
</filter>
<linearGradient id="paint0_linear_20_1311" x1="1" y1="11" x2="37" y2="11" gradientUnits="userSpaceOnUse">
<stop stop-color="#4AA32F"/>
<stop offset="1" stop-color="#66DC42"/>
</linearGradient>
</defs>
</svg>
